<svg viewBox="0 0 100 100" xmlns="http://www.w3.org/2000/svg"><symbol viewBox="0 0 430.113 430.114" id="shape-facebook-purple"><title>facebook-purple</title> <g> <path id="facebook-purple-Facebook" d="M158.081,83.3c0,10.839,0,59.218,0,59.218h-43.385v72.412h43.385v215.183h89.122V214.936h59.805   c0,0,5.601-34.721,8.316-72.685c-7.784,0-67.784,0-67.784,0s0-42.127,0-49.511c0-7.4,9.717-17.354,19.321-17.354   c9.586,0,29.818,0,48.557,0c0-9.859,0-43.924,0-75.385c-25.016,0-53.476,0-66.021,0C155.878-0.004,158.081,72.48,158.081,83.3z" fill="#322955"/> </g>                </symbol><symbol viewBox="0 0 430.113 430.114" id="shape-facebook"><title>facebook</title> <g> <path id="facebook-Facebook" d="M158.081,83.3c0,10.839,0,59.218,0,59.218h-43.385v72.412h43.385v215.183h89.122V214.936h59.805   c0,0,5.601-34.721,8.316-72.685c-7.784,0-67.784,0-67.784,0s0-42.127,0-49.511c0-7.4,9.717-17.354,19.321-17.354   c9.586,0,29.818,0,48.557,0c0-9.859,0-43.924,0-75.385c-25.016,0-53.476,0-66.021,0C155.878-0.004,158.081,72.48,158.081,83.3z" fill="#FFFFFF"/> </g>                </symbol><symbol viewBox="0 0 475.092 475.092" id="shape-google-plus-purple"><title>google-plus-purple</title> <g> <g> <path d="M273.372,302.498c-5.041-6.762-10.608-13.045-16.7-18.842c-6.091-5.804-12.183-11.088-18.271-15.845    c-6.092-4.757-11.659-9.329-16.702-13.709c-5.042-4.374-9.135-8.945-12.275-13.702c-3.14-4.757-4.711-9.61-4.711-14.558    c0-6.855,2.19-13.278,6.567-19.274c4.377-5.996,9.707-11.799,15.986-17.417c6.28-5.617,12.559-11.753,18.844-18.415    c6.276-6.665,11.604-15.465,15.985-26.412c4.373-10.944,6.563-23.458,6.563-37.542c0-16.75-3.713-32.835-11.136-48.25    c-7.423-15.418-17.89-27.412-31.405-35.976h38.54L303.2,0H178.441c-17.699,0-35.498,1.906-53.384,5.72    c-26.453,5.9-48.723,19.368-66.806,40.397C40.171,67.15,31.129,90.99,31.129,117.637c0,28.171,10.138,51.583,30.406,70.233    c20.269,18.649,44.585,27.978,72.945,27.978c5.71,0,12.371-0.478,19.985-1.427c-0.381,1.521-1.043,3.567-1.997,6.136    s-1.715,4.62-2.286,6.14c-0.57,1.521-1.047,3.375-1.425,5.566c-0.382,2.19-0.571,4.428-0.571,6.71    c0,12.563,6.086,26.744,18.271,42.541c-14.465,0.387-28.737,1.67-42.825,3.86c-14.084,2.19-28.833,5.616-44.252,10.28    c-15.417,4.661-29.217,11.42-41.396,20.27c-12.182,8.854-21.317,19.366-27.408,31.549C3.533,361.559,0.01,374.405,0.01,386.017    c0,12.751,2.857,24.314,8.565,34.69c5.708,10.369,13.035,18.842,21.982,25.406c8.945,6.57,19.273,12.083,30.978,16.562    c11.704,4.47,23.315,7.659,34.829,9.562c11.516,1.903,22.888,2.854,34.119,2.854c51.007,0,90.981-12.464,119.909-37.397    c26.648-23.223,39.971-50.062,39.971-80.517c0-10.855-1.57-20.984-4.712-30.409C282.51,317.337,278.42,309.254,273.372,302.498z     M163.311,198.722c-9.707,0-18.937-2.475-27.694-7.426c-8.757-4.95-16.18-11.374-22.27-19.273    c-6.088-7.898-11.418-16.796-15.987-26.695c-4.567-9.896-7.944-19.792-10.135-29.692c-2.19-9.895-3.284-19.318-3.284-28.265    c0-18.271,4.854-33.974,14.562-47.108c9.705-13.134,23.411-19.701,41.112-19.701c12.563,0,23.935,3.899,34.118,11.704    c10.183,7.804,18.177,17.701,23.984,29.692c5.802,11.991,10.277,24.407,13.417,37.257c3.14,12.847,4.711,24.983,4.711,36.403    c0,19.036-4.139,34.317-12.419,45.833C195.144,192.964,181.775,198.722,163.311,198.722z M242.251,413.123    c-5.23,8.949-12.319,15.94-21.267,20.981c-8.946,5.048-18.509,8.758-28.693,11.14c-10.183,2.385-20.889,3.572-32.12,3.572    c-12.182,0-24.27-1.431-36.258-4.284c-11.99-2.851-23.459-7.187-34.403-12.991c-10.944-5.8-19.795-13.798-26.551-23.982    c-6.757-10.184-10.135-21.744-10.135-34.69c0-11.419,2.568-21.601,7.708-30.55c5.142-8.945,11.709-16.084,19.702-21.408    c7.994-5.332,17.319-9.713,27.979-13.131c10.66-3.433,20.937-5.808,30.833-7.139c9.895-1.335,19.985-1.995,30.262-1.995    c6.283,0,11.043,0.191,14.277,0.567c1.143,0.767,4.043,2.759,8.708,5.996s7.804,5.428,9.423,6.57    c1.615,1.137,4.567,3.326,8.85,6.563c4.281,3.237,7.327,5.661,9.135,7.279c1.803,1.618,4.421,4.045,7.849,7.279    c3.424,3.237,5.948,6.043,7.566,8.422c1.615,2.378,3.616,5.28,5.996,8.702c2.38,3.433,4.043,6.715,4.998,9.855    c0.948,3.142,1.854,6.567,2.707,10.277c0.855,3.72,1.283,7.569,1.283,11.57C250.105,393.713,247.487,404.182,242.251,413.123z" fill="#322955"/> <polygon points="401.998,73.089 401.998,0 365.449,0 365.449,73.089 292.358,73.089 292.358,109.636 365.449,109.636     365.449,182.725 401.998,182.725 401.998,109.636 475.081,109.636 475.081,73.089   " fill="#322955"/> </g> </g>                </symbol><symbol viewBox="0 0 475.092 475.092" id="shape-google-plus"><title>google-plus</title> <g> <g> <path d="M273.372,302.498c-5.041-6.762-10.608-13.045-16.7-18.842c-6.091-5.804-12.183-11.088-18.271-15.845    c-6.092-4.757-11.659-9.329-16.702-13.709c-5.042-4.374-9.135-8.945-12.275-13.702c-3.14-4.757-4.711-9.61-4.711-14.558    c0-6.855,2.19-13.278,6.567-19.274c4.377-5.996,9.707-11.799,15.986-17.417c6.28-5.617,12.559-11.753,18.844-18.415    c6.276-6.665,11.604-15.465,15.985-26.412c4.373-10.944,6.563-23.458,6.563-37.542c0-16.75-3.713-32.835-11.136-48.25    c-7.423-15.418-17.89-27.412-31.405-35.976h38.54L303.2,0H178.441c-17.699,0-35.498,1.906-53.384,5.72    c-26.453,5.9-48.723,19.368-66.806,40.397C40.171,67.15,31.129,90.99,31.129,117.637c0,28.171,10.138,51.583,30.406,70.233    c20.269,18.649,44.585,27.978,72.945,27.978c5.71,0,12.371-0.478,19.985-1.427c-0.381,1.521-1.043,3.567-1.997,6.136    s-1.715,4.62-2.286,6.14c-0.57,1.521-1.047,3.375-1.425,5.566c-0.382,2.19-0.571,4.428-0.571,6.71    c0,12.563,6.086,26.744,18.271,42.541c-14.465,0.387-28.737,1.67-42.825,3.86c-14.084,2.19-28.833,5.616-44.252,10.28    c-15.417,4.661-29.217,11.42-41.396,20.27c-12.182,8.854-21.317,19.366-27.408,31.549C3.533,361.559,0.01,374.405,0.01,386.017    c0,12.751,2.857,24.314,8.565,34.69c5.708,10.369,13.035,18.842,21.982,25.406c8.945,6.57,19.273,12.083,30.978,16.562    c11.704,4.47,23.315,7.659,34.829,9.562c11.516,1.903,22.888,2.854,34.119,2.854c51.007,0,90.981-12.464,119.909-37.397    c26.648-23.223,39.971-50.062,39.971-80.517c0-10.855-1.57-20.984-4.712-30.409C282.51,317.337,278.42,309.254,273.372,302.498z     M163.311,198.722c-9.707,0-18.937-2.475-27.694-7.426c-8.757-4.95-16.18-11.374-22.27-19.273    c-6.088-7.898-11.418-16.796-15.987-26.695c-4.567-9.896-7.944-19.792-10.135-29.692c-2.19-9.895-3.284-19.318-3.284-28.265    c0-18.271,4.854-33.974,14.562-47.108c9.705-13.134,23.411-19.701,41.112-19.701c12.563,0,23.935,3.899,34.118,11.704    c10.183,7.804,18.177,17.701,23.984,29.692c5.802,11.991,10.277,24.407,13.417,37.257c3.14,12.847,4.711,24.983,4.711,36.403    c0,19.036-4.139,34.317-12.419,45.833C195.144,192.964,181.775,198.722,163.311,198.722z M242.251,413.123    c-5.23,8.949-12.319,15.94-21.267,20.981c-8.946,5.048-18.509,8.758-28.693,11.14c-10.183,2.385-20.889,3.572-32.12,3.572    c-12.182,0-24.27-1.431-36.258-4.284c-11.99-2.851-23.459-7.187-34.403-12.991c-10.944-5.8-19.795-13.798-26.551-23.982    c-6.757-10.184-10.135-21.744-10.135-34.69c0-11.419,2.568-21.601,7.708-30.55c5.142-8.945,11.709-16.084,19.702-21.408    c7.994-5.332,17.319-9.713,27.979-13.131c10.66-3.433,20.937-5.808,30.833-7.139c9.895-1.335,19.985-1.995,30.262-1.995    c6.283,0,11.043,0.191,14.277,0.567c1.143,0.767,4.043,2.759,8.708,5.996s7.804,5.428,9.423,6.57    c1.615,1.137,4.567,3.326,8.85,6.563c4.281,3.237,7.327,5.661,9.135,7.279c1.803,1.618,4.421,4.045,7.849,7.279    c3.424,3.237,5.948,6.043,7.566,8.422c1.615,2.378,3.616,5.28,5.996,8.702c2.38,3.433,4.043,6.715,4.998,9.855    c0.948,3.142,1.854,6.567,2.707,10.277c0.855,3.72,1.283,7.569,1.283,11.57C250.105,393.713,247.487,404.182,242.251,413.123z" fill="#FFFFFF"/> <polygon points="401.998,73.089 401.998,0 365.449,0 365.449,73.089 292.358,73.089 292.358,109.636 365.449,109.636     365.449,182.725 401.998,182.725 401.998,109.636 475.081,109.636 475.081,73.089   " fill="#FFFFFF"/> </g> </g>                </symbol><symbol viewBox="0 0 97.395 97.395" id="shape-instagram-purple"><title>instagram-purple</title> <g> <path d="M12.501,0h72.393c6.875,0,12.5,5.09,12.5,12.5v72.395c0,7.41-5.625,12.5-12.5,12.5H12.501C5.624,97.395,0,92.305,0,84.895   V12.5C0,5.09,5.624,0,12.501,0L12.501,0z M70.948,10.821c-2.412,0-4.383,1.972-4.383,4.385v10.495c0,2.412,1.971,4.385,4.383,4.385   h11.008c2.412,0,4.385-1.973,4.385-4.385V15.206c0-2.413-1.973-4.385-4.385-4.385H70.948L70.948,10.821z M86.387,41.188h-8.572   c0.811,2.648,1.25,5.453,1.25,8.355c0,16.2-13.556,29.332-30.275,29.332c-16.718,0-30.272-13.132-30.272-29.332   c0-2.904,0.438-5.708,1.25-8.355h-8.945v41.141c0,2.129,1.742,3.872,3.872,3.872h67.822c2.13,0,3.872-1.742,3.872-3.872V41.188   H86.387z M48.789,29.533c-10.802,0-19.56,8.485-19.56,18.953c0,10.468,8.758,18.953,19.56,18.953   c10.803,0,19.562-8.485,19.562-18.953C68.351,38.018,59.593,29.533,48.789,29.533z" fill="#322955"/> </g>                </symbol><symbol viewBox="0 0 97.395 97.395" id="shape-instagram"><title>instagram</title> <g> <path d="M12.501,0h72.393c6.875,0,12.5,5.09,12.5,12.5v72.395c0,7.41-5.625,12.5-12.5,12.5H12.501C5.624,97.395,0,92.305,0,84.895   V12.5C0,5.09,5.624,0,12.501,0L12.501,0z M70.948,10.821c-2.412,0-4.383,1.972-4.383,4.385v10.495c0,2.412,1.971,4.385,4.383,4.385   h11.008c2.412,0,4.385-1.973,4.385-4.385V15.206c0-2.413-1.973-4.385-4.385-4.385H70.948L70.948,10.821z M86.387,41.188h-8.572   c0.811,2.648,1.25,5.453,1.25,8.355c0,16.2-13.556,29.332-30.275,29.332c-16.718,0-30.272-13.132-30.272-29.332   c0-2.904,0.438-5.708,1.25-8.355h-8.945v41.141c0,2.129,1.742,3.872,3.872,3.872h67.822c2.13,0,3.872-1.742,3.872-3.872V41.188   H86.387z M48.789,29.533c-10.802,0-19.56,8.485-19.56,18.953c0,10.468,8.758,18.953,19.56,18.953   c10.803,0,19.562-8.485,19.562-18.953C68.351,38.018,59.593,29.533,48.789,29.533z" fill="#FFFFFF"/> </g>                </symbol><symbol viewBox="0 0 455.731 455.731" id="shape-twitter-purple"><title>twitter-purple</title> <g> <path style="fill:#322955;" d="M60.377,337.822c30.33,19.236,66.308,30.368,104.875,30.368c108.349,0,196.18-87.841,196.18-196.18
		c0-2.705-0.057-5.39-0.161-8.067c3.919-3.084,28.157-22.511,34.098-35c0,0-19.683,8.18-38.947,10.107
		c-0.038,0-0.085,0.009-0.123,0.009c0,0,0.038-0.019,0.104-0.066c1.775-1.186,26.591-18.079,29.951-38.207
		c0,0-13.922,7.431-33.415,13.932c-3.227,1.072-6.605,2.126-10.088,3.103c-12.565-13.41-30.425-21.78-50.25-21.78
		c-38.027,0-68.841,30.805-68.841,68.803c0,5.362,0.617,10.581,1.784,15.592c-5.314-0.218-86.237-4.755-141.289-71.423
		c0,0-32.902,44.917,19.607,91.105c0,0-15.962-0.636-29.733-8.864c0,0-5.058,54.416,54.407,68.329c0,0-11.701,4.432-30.368,1.272
		c0,0,10.439,43.968,63.271,48.077c0,0-41.777,37.74-101.081,28.885L60.377,337.822z"/> </g>                </symbol><symbol viewBox="0 0 455.731 455.731" id="shape-twitter"><title>twitter</title> <g> <path style="fill:#FFFFFF;" d="M60.377,337.822c30.33,19.236,66.308,30.368,104.875,30.368c108.349,0,196.18-87.841,196.18-196.18
		c0-2.705-0.057-5.39-0.161-8.067c3.919-3.084,28.157-22.511,34.098-35c0,0-19.683,8.18-38.947,10.107
		c-0.038,0-0.085,0.009-0.123,0.009c0,0,0.038-0.019,0.104-0.066c1.775-1.186,26.591-18.079,29.951-38.207
		c0,0-13.922,7.431-33.415,13.932c-3.227,1.072-6.605,2.126-10.088,3.103c-12.565-13.41-30.425-21.78-50.25-21.78
		c-38.027,0-68.841,30.805-68.841,68.803c0,5.362,0.617,10.581,1.784,15.592c-5.314-0.218-86.237-4.755-141.289-71.423
		c0,0-32.902,44.917,19.607,91.105c0,0-15.962-0.636-29.733-8.864c0,0-5.058,54.416,54.407,68.329c0,0-11.701,4.432-30.368,1.272
		c0,0,10.439,43.968,63.271,48.077c0,0-41.777,37.74-101.081,28.885L60.377,337.822z"/> </g>                </symbol></svg>